<?xml version="1.0" standalone="no"?>
<!DOCTYPE svg PUBLIC "-//W3C//DTD SVG 20010904//EN"
 "http://www.w3.org/TR/2001/REC-SVG-20010904/DTD/svg10.dtd">
<svg version="1.0" xmlns="http://www.w3.org/2000/svg"
 width="128.000000pt" height="128.000000pt" viewBox="0 0 128.000000 128.000000"
 preserveAspectRatio="xMidYMid meet">

<g transform="translate(0.000000,128.000000) scale(0.100000,-0.100000)"
fill="#000000" stroke="none">
<path d="M205 1248 c-3 -7 -4 -285 -3 -618 l3 -605 435 0 435 0 0 615 0 615
-433 3 c-341 2 -434 0 -437 -10z m835 -608 l0 -580 -400 0 -400 0 0 580 0 580
400 0 400 0 0 -580z"/>
<path d="M590 1161 c-19 -10 -48 -22 -65 -27 -20 -7 -32 -19 -39 -39 -5 -17
-18 -49 -30 -73 l-21 -42 21 -38 21 -37 -60 -61 c-33 -35 -56 -67 -53 -73 4
-6 32 -11 62 -11 l54 0 0 -54 c0 -30 5 -58 11 -62 6 -3 41 24 80 62 l69 68 69
-68 c39 -38 74 -65 80 -62 6 4 11 32 11 62 l0 54 54 0 c30 0 58 5 62 11 3 6
-20 38 -53 73 l-60 61 21 37 21 38 -21 42 c-12 24 -25 56 -30 73 -7 20 -19 32
-39 39 -17 5 -46 17 -66 27 -45 23 -55 23 -99 0z m80 -36 c7 -8 21 -15 32 -15
34 0 55 -19 62 -54 4 -19 13 -39 21 -46 19 -16 19 -44 0 -60 -8 -7 -17 -27
-21 -46 -7 -35 -28 -54 -62 -54 -11 0 -25 -7 -32 -15 -16 -19 -39 -19 -59 -1
-9 8 -28 17 -43 20 -40 7 -45 12 -52 50 -4 19 -13 39 -21 46 -8 7 -15 20 -15
30 0 10 7 23 15 30 8 7 17 27 21 46 7 35 28 54 62 54 11 0 25 7 32 15 7 8 20
15 30 15 10 0 23 -7 30 -15z m-166 -290 c11 -8 29 -15 40 -15 12 0 30 -7 40
-15 19 -15 19 -16 -20 -56 l-39 -40 -5 43 c-5 43 -5 43 -49 46 l-43 3 23 25
c26 28 28 28 53 9z m325 -9 l23 -25 -43 -3 c-44 -3 -44 -3 -49 -46 l-5 -43
-39 40 c-39 40 -39 41 -20 56 10 8 28 15 40 15 11 0 29 7 40 15 25 19 27 19
53 -9z"/>
<path d="M583 1061 c-3 -11 -13 -21 -24 -24 -16 -4 -19 -14 -19 -57 0 -43 3
-53 19 -57 11 -3 21 -13 24 -24 4 -16 14 -19 57 -19 43 0 53 3 57 19 3 11 13
21 24 24 16 4 19 14 19 57 0 43 -3 53 -19 57 -11 3 -21 13 -24 24 -4 16 -14
19 -57 19 -43 0 -53 -3 -57 -19z m77 -37 c0 -9 9 -18 20 -21 24 -6 27 -43 4
-43 -9 0 -18 -9 -21 -20 -6 -24 -43 -27 -43 -4 0 9 -9 18 -20 21 -11 3 -20 13
-20 23 0 10 9 20 20 23 11 3 20 12 20 21 0 9 8 16 20 16 12 0 20 -7 20 -16z"/>
<path d="M360 580 c0 -20 7 -20 280 -20 273 0 280 0 280 20 0 20 -7 20 -280
20 -273 0 -280 0 -280 -20z"/>
<path d="M280 500 c0 -20 7 -20 360 -20 353 0 360 0 360 20 0 20 -7 20 -360
20 -353 0 -360 0 -360 -20z"/>
<path d="M280 420 c0 -20 7 -20 360 -20 353 0 360 0 360 20 0 20 -7 20 -360
20 -353 0 -360 0 -360 -20z"/>
<path d="M280 340 c0 -20 7 -20 360 -20 353 0 360 0 360 20 0 20 -7 20 -360
20 -353 0 -360 0 -360 -20z"/>
<path d="M640 160 c0 -19 7 -20 180 -20 173 0 180 1 180 20 0 19 -7 20 -180
20 -173 0 -180 -1 -180 -20z"/>
</g>
</svg>
